%TF.GenerationSoftware,Altium Limited,Altium Designer,24.7.2 (38)*%
G04 Layer_Color=8421504*
%FSLAX45Y45*%
%MOMM*%
%TF.SameCoordinates,C0304756-74E1-48AD-9E84-610300F6E2F7*%
%TF.FilePolarity,Positive*%
%TF.FileFunction,Paste,Top*%
%TF.Part,Single*%
G01*
G75*
%TA.AperFunction,SMDPad,CuDef*%
%ADD10R,1.20620X0.95620*%
%ADD11R,0.85000X0.75000*%
%ADD12R,0.95620X1.20620*%
%ADD13R,0.55880X1.98120*%
%ADD14R,1.00000X0.75000*%
D10*
X-2349998Y-852498D02*
D03*
Y-647500D02*
D03*
Y-302502D02*
D03*
Y-97498D02*
D03*
D11*
X-2300000Y700001D02*
D03*
Y569999D02*
D03*
Y1115001D02*
D03*
Y984999D02*
D03*
Y314998D02*
D03*
Y185001D02*
D03*
X-200000Y735002D02*
D03*
Y864999D02*
D03*
Y335003D02*
D03*
Y465000D02*
D03*
D12*
X-1697497Y-849999D02*
D03*
X-1902501D02*
D03*
D13*
X1409502Y596379D02*
D03*
X1536502D02*
D03*
X1663502D02*
D03*
X1790502D02*
D03*
Y103619D02*
D03*
X1663502D02*
D03*
X1536502D02*
D03*
X1409502D02*
D03*
D14*
X-200000Y-125001D02*
D03*
Y25001D02*
D03*
%TF.MD5,1b55c56a1a30e959407b99cfc490bba2*%
M02*
