%TF.GenerationSoftware,Altium Limited,Altium Designer,24.7.2 (38)*%
G04 Layer_Color=65535*
%FSLAX45Y45*%
%MOMM*%
%TF.SameCoordinates,C0304756-74E1-48AD-9E84-610300F6E2F7*%
%TF.FilePolarity,Positive*%
%TF.FileFunction,Legend,Top*%
%TF.Part,Single*%
G01*
G75*
%TA.AperFunction,NonConductor*%
%ADD30C,0.20000*%
%ADD31C,0.12700*%
%ADD32C,0.25000*%
%ADD33C,0.15240*%
%ADD34C,0.15400*%
%ADD35C,0.28400*%
%ADD36C,0.25400*%
D30*
X1265501Y-1675000D02*
G03*
X1265501Y-1675000I-10000J0D01*
G01*
X-2434500D02*
G03*
X-2434500Y-1675000I-10000J0D01*
G01*
X40501Y-1650000D02*
G03*
X40501Y-1650000I-10000J0D01*
G01*
X-1184500Y-1675000D02*
G03*
X-1184500Y-1675000I-10000J0D01*
G01*
X-5221900Y2474400D02*
G03*
X-5221900Y2474400I-10000J0D01*
G01*
X2736001Y-1040500D02*
G03*
X2736001Y-1040500I-10000J0D01*
G01*
X654502Y121998D02*
Y578000D01*
X845500D01*
Y121998D02*
Y578000D01*
X654502Y121998D02*
X845500D01*
X664500Y200002D02*
X835503D01*
X750001Y81999D02*
Y121998D01*
Y578000D02*
Y618000D01*
X304500Y121998D02*
Y578000D01*
X495503D01*
Y121998D02*
Y578000D01*
X304500Y121998D02*
X495503D01*
X314503Y200002D02*
X485501D01*
X399999Y81999D02*
Y121998D01*
Y578000D02*
Y618000D01*
X-1925000Y1020000D02*
X-1665000D01*
X-1434998D02*
X-1164996D01*
X-934999D02*
X-675000D01*
Y-320002D02*
Y62502D01*
Y637502D02*
Y1020000D01*
X-1925000Y-320002D02*
X-1665000D01*
X-1434998D02*
X-1414998D01*
X-1184996D02*
X-1164996D01*
X-934999D02*
X-675000D01*
X-1925000D02*
Y62502D01*
Y637502D02*
Y1020000D01*
X-2289688Y-774688D02*
Y-725310D01*
X-2410308Y-774688D02*
Y-725310D01*
X-2289688Y-224691D02*
Y-175309D01*
X-2410308Y-224691D02*
Y-175309D01*
X-1824690Y-789689D02*
X-1775308D01*
X-1824690Y-910308D02*
X-1775308D01*
X-289997Y-130000D02*
Y30000D01*
X-109997Y-130000D02*
Y30000D01*
X2589002Y-966503D02*
Y1065497D01*
Y-966503D02*
X2843002D01*
Y1065497D01*
X2589002D02*
X2843002D01*
D31*
X1875501Y-1900000D02*
G03*
X1875501Y-1900000I-175500J0D01*
G01*
X-1824500D02*
G03*
X-1824500Y-1900000I-175500J0D01*
G01*
X650501Y-1875000D02*
G03*
X650501Y-1875000I-175500J0D01*
G01*
X-574499Y-1900000D02*
G03*
X-574499Y-1900000I-175500J0D01*
G01*
X1400500Y-2015000D02*
Y-1784998D01*
X1470000Y-2199501D02*
X1929999D01*
X2000001Y-2015000D02*
Y-1784998D01*
X1479997Y-1600503D02*
X1929999D01*
X-2299498Y-2015000D02*
Y-1784998D01*
X-2229998Y-2199501D02*
X-1769999D01*
X-1700002Y-2015000D02*
Y-1784998D01*
X-2220001Y-1600503D02*
X-1769999D01*
X175499Y-1990001D02*
Y-1759999D01*
X244998Y-2174502D02*
X704997D01*
X775000Y-1990001D02*
Y-1759999D01*
X255001Y-1575499D02*
X704997D01*
X-1049503Y-2015000D02*
Y-1784998D01*
X-980003Y-2199501D02*
X-519999D01*
X-450002Y-2015000D02*
Y-1784998D01*
X-970001Y-1600503D02*
X-519999D01*
X-2708001Y2459997D02*
X-1692001D01*
Y1739999D02*
Y2459997D01*
Y2559997D01*
X-2708001D02*
X-1692001D01*
X-2708001Y2459997D02*
Y2559997D01*
Y1739999D02*
Y2459997D01*
Y1739999D02*
X-1692001D01*
X-953999Y2459997D02*
X62001D01*
Y1739999D02*
Y2459997D01*
Y2559997D01*
X-953999D02*
X62001D01*
X-953999Y2459997D02*
Y2559997D01*
Y1739999D02*
Y2459997D01*
Y1739999D02*
X62001D01*
X796000Y2459997D02*
X1812000D01*
Y1739999D02*
Y2459997D01*
Y2559997D01*
X796000D02*
X1812000D01*
X796000Y2459997D02*
Y2559997D01*
Y1739999D02*
Y2459997D01*
Y1739999D02*
X1812000D01*
X-5174899Y2728399D02*
X-2888899D01*
Y-2605601D02*
Y2728399D01*
X-5174899Y-2605601D02*
X-2888899D01*
X-5174899D02*
Y2728399D01*
D32*
X-1537500Y-532500D02*
G03*
X-1537500Y-532500I-12500J0D01*
G01*
D33*
X1351080Y319521D02*
G03*
X1351080Y380481I0J30480D01*
G01*
X1351082Y212839D02*
Y319519D01*
Y380479D01*
Y487159D01*
X1848922Y212839D02*
Y487159D01*
D34*
X915400Y2687776D02*
Y2615400D01*
X963651D01*
X1023965Y2687776D02*
X999839D01*
X987777Y2675714D01*
Y2627463D01*
X999839Y2615400D01*
X1023965D01*
X1036028Y2627463D01*
Y2675714D01*
X1023965Y2687776D01*
X1108404Y2675714D02*
X1096341Y2687776D01*
X1072216D01*
X1060153Y2675714D01*
Y2627463D01*
X1072216Y2615400D01*
X1096341D01*
X1108404Y2627463D01*
Y2651588D01*
X1084279D01*
X1132530Y2675714D02*
X1144592Y2687776D01*
X1168718D01*
X1180781Y2675714D01*
Y2663651D01*
X1168718Y2651588D01*
X1156655D01*
X1168718D01*
X1180781Y2639525D01*
Y2627463D01*
X1168718Y2615400D01*
X1144592D01*
X1132530Y2627463D01*
X1422036Y2687776D02*
Y2615400D01*
X1470287D01*
X1530600Y2687776D02*
X1506475D01*
X1494412Y2675714D01*
Y2627463D01*
X1506475Y2615400D01*
X1530600D01*
X1542663Y2627463D01*
Y2675714D01*
X1530600Y2687776D01*
X1615040Y2675714D02*
X1602977Y2687776D01*
X1578852D01*
X1566789Y2675714D01*
Y2627463D01*
X1578852Y2615400D01*
X1602977D01*
X1615040Y2627463D01*
Y2651588D01*
X1590914D01*
X1675354Y2615400D02*
Y2687776D01*
X1639165Y2651588D01*
X1687416D01*
X-834600Y2687776D02*
Y2615400D01*
X-786349D01*
X-726035Y2687776D02*
X-750161D01*
X-762224Y2675714D01*
Y2627463D01*
X-750161Y2615400D01*
X-726035D01*
X-713972Y2627463D01*
Y2675714D01*
X-726035Y2687776D01*
X-641596Y2675714D02*
X-653659Y2687776D01*
X-677784D01*
X-689847Y2675714D01*
Y2627463D01*
X-677784Y2615400D01*
X-653659D01*
X-641596Y2627463D01*
Y2651588D01*
X-665722D01*
X-617470Y2615400D02*
X-593345D01*
X-605408D01*
Y2687776D01*
X-617470Y2675714D01*
X-340027Y2687776D02*
Y2615400D01*
X-291776D01*
X-231462Y2687776D02*
X-255588D01*
X-267650Y2675714D01*
Y2627463D01*
X-255588Y2615400D01*
X-231462D01*
X-219399Y2627463D01*
Y2675714D01*
X-231462Y2687776D01*
X-147023Y2675714D02*
X-159086Y2687776D01*
X-183211D01*
X-195274Y2675714D01*
Y2627463D01*
X-183211Y2615400D01*
X-159086D01*
X-147023Y2627463D01*
Y2651588D01*
X-171149D01*
X-74646Y2615400D02*
X-122897D01*
X-74646Y2663651D01*
Y2675714D01*
X-86709Y2687776D01*
X-110835D01*
X-122897Y2675714D01*
X-2536349D02*
X-2548412Y2687776D01*
X-2572537D01*
X-2584600Y2675714D01*
Y2627463D01*
X-2572537Y2615400D01*
X-2548412D01*
X-2536349Y2627463D01*
Y2651588D01*
X-2560474D01*
X-2512223Y2615400D02*
Y2687776D01*
X-2463972Y2615400D01*
Y2687776D01*
X-2439847D02*
Y2615400D01*
X-2403659D01*
X-2391596Y2627463D01*
Y2675714D01*
X-2403659Y2687776D01*
X-2439847D01*
X-2041776D02*
X-2065901D01*
X-2077964Y2675714D01*
Y2627463D01*
X-2065901Y2615400D01*
X-2041776D01*
X-2029713Y2627463D01*
Y2675714D01*
X-2041776Y2687776D01*
X-1957336Y2675714D02*
X-1969399Y2687776D01*
X-1993525D01*
X-2005588Y2675714D01*
Y2663651D01*
X-1993525Y2651588D01*
X-1969399D01*
X-1957336Y2639525D01*
Y2627463D01*
X-1969399Y2615400D01*
X-1993525D01*
X-2005588Y2627463D01*
X-1884960Y2675714D02*
X-1897023Y2687776D01*
X-1921148D01*
X-1933211Y2675714D01*
Y2627463D01*
X-1921148Y2615400D01*
X-1897023D01*
X-1884960Y2627463D01*
X-1860834Y2615400D02*
X-1836709D01*
X-1848772D01*
Y2687776D01*
X-1860834Y2675714D01*
D35*
X-5071600Y3000760D02*
Y2919186D01*
Y2959973D01*
X-5051207Y2980367D01*
X-5030813Y3000760D01*
X-5010420D01*
X-4928846D02*
X-4888060D01*
X-4867666Y2980367D01*
Y2919186D01*
X-4928846D01*
X-4949240Y2939580D01*
X-4928846Y2959973D01*
X-4867666D01*
X-4826879Y2878400D02*
X-4806486D01*
X-4786093Y2898793D01*
Y3000760D01*
X-4643339Y2919186D02*
X-4684126D01*
X-4704519Y2939580D01*
Y2980367D01*
X-4684126Y3000760D01*
X-4643339D01*
X-4622945Y2980367D01*
Y2959973D01*
X-4704519D01*
X-4582158Y2919186D02*
X-4520978D01*
X-4500585Y2939580D01*
X-4520978Y2959973D01*
X-4561765D01*
X-4582158Y2980367D01*
X-4561765Y3000760D01*
X-4500585D01*
X-4439405D02*
X-4398618D01*
X-4378224Y2980367D01*
Y2919186D01*
X-4439405D01*
X-4459798Y2939580D01*
X-4439405Y2959973D01*
X-4378224D01*
X-4255864Y3021153D02*
X-4276257Y3041547D01*
X-4317044D01*
X-4337438Y3021153D01*
Y3000760D01*
X-4317044Y2980367D01*
X-4276257D01*
X-4255864Y2959973D01*
Y2939580D01*
X-4276257Y2919186D01*
X-4317044D01*
X-4337438Y2939580D01*
X-4133504Y3000760D02*
X-4194684D01*
X-4215077Y2980367D01*
Y2939580D01*
X-4194684Y2919186D01*
X-4133504D01*
X-4072323D02*
X-4031537D01*
X-4011143Y2939580D01*
Y2980367D01*
X-4031537Y3000760D01*
X-4072323D01*
X-4092717Y2980367D01*
Y2939580D01*
X-4072323Y2919186D01*
X-3970356Y2878400D02*
Y3000760D01*
X-3909176D01*
X-3888783Y2980367D01*
Y2939580D01*
X-3909176Y2919186D01*
X-3970356D01*
X-3786816D02*
X-3827602D01*
X-3847996Y2939580D01*
Y2980367D01*
X-3827602Y3000760D01*
X-3786816D01*
X-3766422Y2980367D01*
Y2959973D01*
X-3847996D01*
X-3603275Y2980367D02*
X-3521701D01*
X-3276980Y3021153D02*
X-3297374Y3041547D01*
X-3338161D01*
X-3358554Y3021153D01*
Y3000760D01*
X-3338161Y2980367D01*
X-3297374D01*
X-3276980Y2959973D01*
Y2939580D01*
X-3297374Y2919186D01*
X-3338161D01*
X-3358554Y2939580D01*
X-3236194Y3041547D02*
X-3154620D01*
X-3195407D01*
Y2919186D01*
X-3113833D02*
Y3041547D01*
X-3073046Y3000760D01*
X-3032260Y3041547D01*
Y2919186D01*
X-2991473Y3021153D02*
X-2971079Y3041547D01*
X-2930293D01*
X-2909899Y3021153D01*
Y3000760D01*
X-2930293Y2980367D01*
X-2950686D01*
X-2930293D01*
X-2909899Y2959973D01*
Y2939580D01*
X-2930293Y2919186D01*
X-2971079D01*
X-2991473Y2939580D01*
X-2787539Y2919186D02*
X-2869112D01*
X-2787539Y3000760D01*
Y3021153D01*
X-2807932Y3041547D01*
X-2848719D01*
X-2869112Y3021153D01*
X-2665178Y3041547D02*
X-2746752D01*
Y2980367D01*
X-2705965D01*
X-2746752D01*
Y2919186D01*
X-2563211D02*
Y3041547D01*
X-2624391Y2980367D01*
X-2542818D01*
X-2379671Y3041547D02*
Y2919186D01*
X-2318490D01*
X-2298097Y2939580D01*
Y2959973D01*
Y2980367D01*
X-2318490Y3000760D01*
X-2379671D01*
X-2236917D02*
X-2196130D01*
X-2175737Y2980367D01*
Y2919186D01*
X-2236917D01*
X-2257310Y2939580D01*
X-2236917Y2959973D01*
X-2175737D01*
X-2134950Y2919186D02*
X-2073770D01*
X-2053376Y2939580D01*
X-2073770Y2959973D01*
X-2114556D01*
X-2134950Y2980367D01*
X-2114556Y3000760D01*
X-2053376D01*
X-1951409Y2919186D02*
X-1992196D01*
X-2012589Y2939580D01*
Y2980367D01*
X-1992196Y3000760D01*
X-1951409D01*
X-1931016Y2980367D01*
Y2959973D01*
X-2012589D01*
X-1808655Y3041547D02*
Y2919186D01*
X-1869835D01*
X-1890229Y2939580D01*
Y2980367D01*
X-1869835Y3000760D01*
X-1808655D01*
X-1584328Y3041547D02*
X-1625115D01*
X-1645508Y3021153D01*
Y2939580D01*
X-1625115Y2919186D01*
X-1584328D01*
X-1563934Y2939580D01*
Y3021153D01*
X-1584328Y3041547D01*
X-1523148Y2919186D02*
X-1461967D01*
X-1441574Y2939580D01*
X-1461967Y2959973D01*
X-1502754D01*
X-1523148Y2980367D01*
X-1502754Y3000760D01*
X-1441574D01*
X-1319214D02*
X-1380394D01*
X-1400787Y2980367D01*
Y2939580D01*
X-1380394Y2919186D01*
X-1319214D01*
X-1278427D02*
X-1237640D01*
X-1258033D01*
Y3000760D01*
X-1278427D01*
X-1176460Y2919186D02*
X-1135673D01*
X-1156066D01*
Y3041547D01*
X-1176460D01*
X-1074493Y2919186D02*
X-1033706D01*
X-1054099D01*
Y3041547D01*
X-1074493D01*
X-952132Y2919186D02*
X-911345D01*
X-890952Y2939580D01*
Y2980367D01*
X-911345Y3000760D01*
X-952132D01*
X-972526Y2980367D01*
Y2939580D01*
X-952132Y2919186D01*
X-850165D02*
X-788985D01*
X-768592Y2939580D01*
X-788985Y2959973D01*
X-829772D01*
X-850165Y2980367D01*
X-829772Y3000760D01*
X-768592D01*
X-646231D02*
X-707411D01*
X-727805Y2980367D01*
Y2939580D01*
X-707411Y2919186D01*
X-646231D01*
X-585051D02*
X-544264D01*
X-523871Y2939580D01*
Y2980367D01*
X-544264Y3000760D01*
X-585051D01*
X-605444Y2980367D01*
Y2939580D01*
X-585051Y2919186D01*
X-483084Y2878400D02*
Y3000760D01*
X-421904D01*
X-401510Y2980367D01*
Y2939580D01*
X-421904Y2919186D01*
X-483084D01*
X-299543D02*
X-340330D01*
X-360723Y2939580D01*
Y2980367D01*
X-340330Y3000760D01*
X-299543D01*
X-279150Y2980367D01*
Y2959973D01*
X-360723D01*
X-95609Y3000760D02*
X-54822D01*
X-34429Y2980367D01*
Y2919186D01*
X-95609D01*
X-116003Y2939580D01*
X-95609Y2959973D01*
X-34429D01*
X6358Y2919186D02*
Y3000760D01*
X67538D01*
X87931Y2980367D01*
Y2919186D01*
X210292Y3041547D02*
Y2919186D01*
X149112D01*
X128718Y2939580D01*
Y2980367D01*
X149112Y3000760D01*
X210292D01*
X373439Y3041547D02*
Y2919186D01*
X455013D01*
X516193D02*
X556980D01*
X577373Y2939580D01*
Y2980367D01*
X556980Y3000760D01*
X516193D01*
X495800Y2980367D01*
Y2939580D01*
X516193Y2919186D01*
X658947Y2878400D02*
X679340D01*
X699734Y2898793D01*
Y3000760D01*
X638553D01*
X618160Y2980367D01*
Y2939580D01*
X638553Y2919186D01*
X699734D01*
X740520D02*
X781307D01*
X760914D01*
Y3000760D01*
X740520D01*
X924061D02*
X862881D01*
X842488Y2980367D01*
Y2939580D01*
X862881Y2919186D01*
X924061D01*
X1087208D02*
Y3000760D01*
X1127995Y3041547D01*
X1168782Y3000760D01*
Y2919186D01*
Y2980367D01*
X1087208D01*
X1209569Y2919186D02*
Y3000760D01*
X1270749D01*
X1291142Y2980367D01*
Y2919186D01*
X1352323Y3000760D02*
X1393109D01*
X1413503Y2980367D01*
Y2919186D01*
X1352323D01*
X1331929Y2939580D01*
X1352323Y2959973D01*
X1413503D01*
X1454290Y2919186D02*
X1495077D01*
X1474683D01*
Y3041547D01*
X1454290D01*
X1556257Y3000760D02*
Y2939580D01*
X1576650Y2919186D01*
X1637830D01*
Y2898793D01*
X1617437Y2878400D01*
X1597044D01*
X1637830Y2919186D02*
Y3000760D01*
X1678617D02*
X1760191D01*
X1678617Y2919186D01*
X1760191D01*
X1862158D02*
X1821371D01*
X1800978Y2939580D01*
Y2980367D01*
X1821371Y3000760D01*
X1862158D01*
X1882551Y2980367D01*
Y2959973D01*
X1800978D01*
X1923338Y3000760D02*
Y2919186D01*
Y2959973D01*
X1943731Y2980367D01*
X1964125Y3000760D01*
X1984518D01*
D36*
X1363418Y-1306951D02*
X1338026Y-1281560D01*
X1287243D01*
X1261851Y-1306951D01*
Y-1332343D01*
X1287243Y-1357735D01*
X1338026D01*
X1363418Y-1383127D01*
Y-1408518D01*
X1338026Y-1433910D01*
X1287243D01*
X1261851Y-1408518D01*
X1414202Y-1281560D02*
Y-1433910D01*
X1464985Y-1383127D01*
X1515769Y-1433910D01*
Y-1281560D01*
X1642728Y-1433910D02*
Y-1281560D01*
X1566552Y-1357735D01*
X1668120D01*
X-2336583Y-1306951D02*
X-2361975Y-1281560D01*
X-2412758D01*
X-2438150Y-1306951D01*
Y-1332343D01*
X-2412758Y-1357735D01*
X-2361975D01*
X-2336583Y-1383127D01*
Y-1408518D01*
X-2361975Y-1433910D01*
X-2412758D01*
X-2438150Y-1408518D01*
X-2285799Y-1281560D02*
Y-1433910D01*
X-2235016Y-1383127D01*
X-2184232Y-1433910D01*
Y-1281560D01*
X-2133449Y-1433910D02*
X-2082665D01*
X-2108057D01*
Y-1281560D01*
X-2133449Y-1306951D01*
X138418Y-1281951D02*
X113026Y-1256560D01*
X62242D01*
X36851Y-1281951D01*
Y-1307343D01*
X62242Y-1332735D01*
X113026D01*
X138418Y-1358127D01*
Y-1383518D01*
X113026Y-1408910D01*
X62242D01*
X36851Y-1383518D01*
X189201Y-1256560D02*
Y-1408910D01*
X239985Y-1358127D01*
X290769Y-1408910D01*
Y-1256560D01*
X341552Y-1281951D02*
X366944Y-1256560D01*
X417727D01*
X443119Y-1281951D01*
Y-1307343D01*
X417727Y-1332735D01*
X392336D01*
X417727D01*
X443119Y-1358127D01*
Y-1383518D01*
X417727Y-1408910D01*
X366944D01*
X341552Y-1383518D01*
X-1086582Y-1306951D02*
X-1111974Y-1281560D01*
X-1162758D01*
X-1188150Y-1306951D01*
Y-1332343D01*
X-1162758Y-1357735D01*
X-1111974D01*
X-1086582Y-1383127D01*
Y-1408518D01*
X-1111974Y-1433910D01*
X-1162758D01*
X-1188150Y-1408518D01*
X-1035799Y-1281560D02*
Y-1433910D01*
X-985015Y-1383127D01*
X-934232Y-1433910D01*
Y-1281560D01*
X-781881Y-1433910D02*
X-883448D01*
X-781881Y-1332343D01*
Y-1306951D01*
X-807273Y-1281560D01*
X-858056D01*
X-883448Y-1306951D01*
X659830Y1039561D02*
Y887211D01*
X736005D01*
X761397Y912602D01*
Y1014169D01*
X736005Y1039561D01*
X659830D01*
X913748Y887211D02*
X812181D01*
X913748Y988778D01*
Y1014169D01*
X888356Y1039561D01*
X837573D01*
X812181Y1014169D01*
X309830Y1039561D02*
Y887211D01*
X386005D01*
X411397Y912602D01*
Y1014169D01*
X386005Y1039561D01*
X309830D01*
X462181Y887211D02*
X512964D01*
X487573D01*
Y1039561D01*
X462181Y1014169D01*
X-1657710Y1635650D02*
Y1483299D01*
X-1733885D01*
X-1759277Y1508691D01*
Y1559475D01*
X-1733885Y1584867D01*
X-1657710D01*
X-1810060Y1635650D02*
X-1860844D01*
X-1835452D01*
Y1483299D01*
X-1810060Y1508691D01*
X96290Y1635650D02*
Y1483299D01*
X20115D01*
X-5277Y1508691D01*
Y1559475D01*
X20115Y1584867D01*
X96290D01*
X-157628Y1635650D02*
X-56060D01*
X-157628Y1534083D01*
Y1508691D01*
X-132236Y1483299D01*
X-81452D01*
X-56060Y1508691D01*
X-1882963Y1374841D02*
X-1984530D01*
Y1222490D01*
X-1882963D01*
X-1984530Y1298665D02*
X-1933747D01*
X-1832179Y1222490D02*
Y1374841D01*
X-1730612Y1222490D01*
Y1374841D01*
X-1578262Y1349449D02*
X-1603653Y1374841D01*
X-1654437D01*
X-1679829Y1349449D01*
Y1247882D01*
X-1654437Y1222490D01*
X-1603653D01*
X-1578262Y1247882D01*
X-1527478Y1222490D02*
X-1476695D01*
X-1502086D01*
Y1374841D01*
X-1527478Y1349449D01*
X1846290Y1635650D02*
Y1483299D01*
X1770115D01*
X1744723Y1508691D01*
Y1559475D01*
X1770115Y1584867D01*
X1846290D01*
X1693940Y1508691D02*
X1668548Y1483299D01*
X1617764D01*
X1592372Y1508691D01*
Y1534083D01*
X1617764Y1559475D01*
X1643156D01*
X1617764D01*
X1592372Y1584867D01*
Y1610258D01*
X1617764Y1635650D01*
X1668548D01*
X1693940Y1610258D01*
X-2673809Y-832583D02*
X-2699201Y-857975D01*
Y-908758D01*
X-2673809Y-934150D01*
X-2572242D01*
X-2546850Y-908758D01*
Y-857975D01*
X-2572242Y-832583D01*
X-2546850Y-781800D02*
Y-731016D01*
Y-756408D01*
X-2699201D01*
X-2673809Y-781800D01*
X-2650783Y-525392D02*
X-2676175Y-550784D01*
Y-601567D01*
X-2650783Y-626959D01*
X-2549216D01*
X-2523825Y-601567D01*
Y-550784D01*
X-2549216Y-525392D01*
X-2523825Y-373041D02*
Y-474608D01*
X-2625392Y-373041D01*
X-2650783D01*
X-2676175Y-398433D01*
Y-449216D01*
X-2650783Y-474608D01*
X-2438430Y542290D02*
X-2590781D01*
Y618465D01*
X-2565389Y643857D01*
X-2514606D01*
X-2489214Y618465D01*
Y542290D01*
Y593073D02*
X-2438430Y643857D01*
Y770816D02*
X-2590781D01*
X-2514606Y694640D01*
Y796208D01*
X-2438430Y957290D02*
X-2590781D01*
Y1033465D01*
X-2565389Y1058857D01*
X-2514606D01*
X-2489214Y1033465D01*
Y957290D01*
Y1008073D02*
X-2438430Y1058857D01*
X-2590781Y1211208D02*
X-2565389Y1160424D01*
X-2514606Y1109640D01*
X-2463822D01*
X-2438430Y1135032D01*
Y1185816D01*
X-2463822Y1211208D01*
X-2489214D01*
X-2514606Y1185816D01*
Y1109640D01*
X-2438430Y157290D02*
X-2590781D01*
Y233465D01*
X-2565389Y258857D01*
X-2514606D01*
X-2489214Y233465D01*
Y157290D01*
Y208073D02*
X-2438430Y258857D01*
X-2590781Y411208D02*
Y309641D01*
X-2514606D01*
X-2539997Y360424D01*
Y385816D01*
X-2514606Y411208D01*
X-2463822D01*
X-2438430Y385816D01*
Y335033D01*
X-2463822Y309641D01*
X-1717417Y-1173809D02*
X-1692026Y-1199201D01*
X-1641242D01*
X-1615850Y-1173809D01*
Y-1072242D01*
X-1641242Y-1046850D01*
X-1692026D01*
X-1717417Y-1072242D01*
X-1768201Y-1173809D02*
X-1793593Y-1199201D01*
X-1844376D01*
X-1869768Y-1173809D01*
Y-1148417D01*
X-1844376Y-1123025D01*
X-1818984D01*
X-1844376D01*
X-1869768Y-1097634D01*
Y-1072242D01*
X-1844376Y-1046850D01*
X-1793593D01*
X-1768201Y-1072242D01*
X1116179Y21071D02*
X1243138D01*
X1268530Y46462D01*
Y97246D01*
X1243138Y122638D01*
X1116179D01*
X1268530Y173421D02*
Y224205D01*
Y198813D01*
X1116179D01*
X1141571Y173421D01*
X-26175Y1959D02*
X126176D01*
Y-74216D01*
X100784Y-99608D01*
X50000D01*
X24609Y-74216D01*
Y1959D01*
Y-48824D02*
X-26175Y-99608D01*
Y-251959D02*
Y-150392D01*
X75392Y-251959D01*
X100784D01*
X126176Y-226567D01*
Y-175783D01*
X100784Y-150392D01*
X-61570Y892710D02*
X90781D01*
Y816535D01*
X65389Y791143D01*
X14606D01*
X-10786Y816535D01*
Y892710D01*
Y841927D02*
X-61570Y791143D01*
Y740360D02*
Y689576D01*
Y714968D01*
X90781D01*
X65389Y740360D01*
X-61570Y492710D02*
X90781D01*
Y416535D01*
X65389Y391143D01*
X14606D01*
X-10786Y416535D01*
Y492710D01*
Y441927D02*
X-61570Y391143D01*
X65389Y340360D02*
X90781Y314968D01*
Y264184D01*
X65389Y238793D01*
X39998D01*
X14606Y264184D01*
Y289576D01*
Y264184D01*
X-10786Y238793D01*
X-36178D01*
X-61570Y264184D01*
Y314968D01*
X-36178Y340360D01*
X-2676959Y-2573825D02*
Y-2700784D01*
X-2651567Y-2726175D01*
X-2600783D01*
X-2575392Y-2700784D01*
Y-2573825D01*
X-2524608Y-2599217D02*
X-2499216Y-2573825D01*
X-2448433D01*
X-2423041Y-2599217D01*
Y-2624608D01*
X-2448433Y-2650000D01*
X-2473825D01*
X-2448433D01*
X-2423041Y-2675392D01*
Y-2700784D01*
X-2448433Y-2726175D01*
X-2499216D01*
X-2524608Y-2700784D01*
X2689298Y1320721D02*
X2638515D01*
X2663907D01*
Y1193762D01*
X2638515Y1168370D01*
X2613123D01*
X2587731Y1193762D01*
X2740082Y1168370D02*
X2790865D01*
X2765474D01*
Y1320721D01*
X2740082Y1295329D01*
%TF.MD5,fbd0e09cdf9fa6a599d07a4be571b49a*%
M02*
