%TF.GenerationSoftware,Altium Limited,Altium Designer,24.7.2 (38)*%
G04 Layer_Color=0*
%FSLAX45Y45*%
%MOMM*%
%TF.SameCoordinates,C0304756-74E1-48AD-9E84-610300F6E2F7*%
%TF.FilePolarity,Positive*%
%TF.FileFunction,Plated,1,2,PTH,Drill*%
%TF.Part,Single*%
G01*
G75*
%TA.AperFunction,ComponentDrill*%
%ADD49C,0.99000*%
%ADD50C,0.70000*%
%ADD51C,1.10000*%
%ADD52C,1.00000*%
%ADD53O,1.80000X4.40000*%
%ADD54C,0.81280*%
%TA.AperFunction,ViaDrill,NotFilled*%
%ADD55C,0.71120*%
D49*
X2025000Y-1675001D02*
D03*
Y-2125002D02*
D03*
X1374999Y-1675001D02*
D03*
Y-2125002D02*
D03*
X-1674998Y-1675001D02*
D03*
Y-2125002D02*
D03*
X-2324999Y-1675001D02*
D03*
Y-2125002D02*
D03*
X799998Y-1650002D02*
D03*
Y-2099999D02*
D03*
X149997Y-1650002D02*
D03*
Y-2099999D02*
D03*
X-425003Y-1675001D02*
D03*
Y-2125002D02*
D03*
X-1074999Y-1675001D02*
D03*
Y-2125002D02*
D03*
D50*
X750001Y-31301D02*
D03*
Y731299D02*
D03*
X399999Y-31301D02*
D03*
Y731299D02*
D03*
D51*
X-2454001Y2150001D02*
D03*
X-1946001D02*
D03*
X-699999D02*
D03*
X-191999D02*
D03*
X1050000D02*
D03*
X1558000D02*
D03*
D52*
X-1549999Y1049998D02*
D03*
X-1050000D02*
D03*
X-1549999Y-400002D02*
D03*
X-1050000D02*
D03*
X-1299997D02*
D03*
X-3269899Y2220399D02*
D03*
X-4793899Y-2097601D02*
D03*
Y2474399D02*
D03*
Y2220399D02*
D03*
Y1966399D02*
D03*
Y1712399D02*
D03*
Y1458399D02*
D03*
Y1204399D02*
D03*
Y950399D02*
D03*
Y696399D02*
D03*
Y442399D02*
D03*
Y188399D02*
D03*
Y-65601D02*
D03*
Y-319601D02*
D03*
Y-573601D02*
D03*
Y-827601D02*
D03*
Y-1081601D02*
D03*
Y-1335601D02*
D03*
Y-1589601D02*
D03*
Y-1843601D02*
D03*
Y-2351601D02*
D03*
X-3269899D02*
D03*
Y-2097601D02*
D03*
Y-1843601D02*
D03*
Y-1589601D02*
D03*
Y-1335601D02*
D03*
Y-1081601D02*
D03*
Y-827601D02*
D03*
Y-573601D02*
D03*
Y-319601D02*
D03*
Y-65601D02*
D03*
Y188399D02*
D03*
Y442399D02*
D03*
Y696399D02*
D03*
Y950399D02*
D03*
Y1204399D02*
D03*
Y1458399D02*
D03*
Y1712399D02*
D03*
Y1966399D02*
D03*
Y2474399D02*
D03*
D53*
X-1869999Y349999D02*
D03*
X-730001D02*
D03*
D54*
X2716002Y-839503D02*
D03*
Y-77503D02*
D03*
Y-331503D02*
D03*
Y-585503D02*
D03*
Y176497D02*
D03*
Y430497D02*
D03*
Y938497D02*
D03*
Y684497D02*
D03*
D55*
X-2100000Y-350000D02*
D03*
X-2150000Y-1000000D02*
D03*
X-1850000Y-550000D02*
D03*
X-1350000Y-650000D02*
D03*
X-50000Y600000D02*
D03*
X1650000Y850000D02*
D03*
X2000000Y450000D02*
D03*
X-4123380Y2166160D02*
D03*
X-2627320Y-193500D02*
D03*
X-2058360Y-647500D02*
D03*
%TF.MD5,c40fecb0be1e4af68a4ff6c3222b12f2*%
M02*
