%TF.GenerationSoftware,Altium Limited,Altium Designer,24.7.2 (38)*%
G04 Layer_Physical_Order=2*
G04 Layer_Color=16711680*
%FSLAX45Y45*%
%MOMM*%
%TF.SameCoordinates,C0304756-74E1-48AD-9E84-610300F6E2F7*%
%TF.FilePolarity,Positive*%
%TF.FileFunction,Copper,L2,Bot,Signal*%
%TF.Part,Single*%
G01*
G75*
%TA.AperFunction,Conductor*%
%ADD15C,0.25400*%
%TA.AperFunction,ComponentPad*%
%ADD16C,1.49800*%
%ADD17R,1.49800X1.49800*%
%ADD18R,1.20000X1.20000*%
%ADD19C,1.20000*%
%ADD20C,1.65000*%
%ADD21R,1.65000X1.65000*%
%ADD22C,1.55000*%
%ADD23R,1.55000X1.55000*%
G04:AMPARAMS|DCode=24|XSize=2.4mm|YSize=5mm|CornerRadius=1.2mm|HoleSize=0mm|Usage=FLASHONLY|Rotation=0.000|XOffset=0mm|YOffset=0mm|HoleType=Round|Shape=RoundedRectangle|*
%AMROUNDEDRECTD24*
21,1,2.40000,2.60000,0,0,0.0*
21,1,0.00000,5.00000,0,0,0.0*
1,1,2.40000,0.00000,-1.30000*
1,1,2.40000,0.00000,-1.30000*
1,1,2.40000,0.00000,1.30000*
1,1,2.40000,0.00000,1.30000*
%
%ADD24ROUNDEDRECTD24*%
%ADD25R,1.32080X1.32080*%
%ADD26C,1.50800*%
%ADD27R,1.50800X1.50800*%
%ADD28C,1.32080*%
%TA.AperFunction,ViaPad*%
%ADD29C,1.27000*%
D15*
X-3109920Y-701500D02*
X-2703520Y-295100D01*
X-2404068D02*
X-2357368Y-248400D01*
X-2703520Y-295100D02*
X-2404068D01*
X-2357368Y-248400D02*
X-2057916D01*
X-1995234Y-495100D02*
Y-311082D01*
X-2057916Y-248400D02*
X-1995234Y-311082D01*
X-2627320Y-193500D02*
X-1256502D01*
X-1050000Y-400002D01*
X-2100000Y-545456D02*
Y-350000D01*
X-2159960Y-605416D02*
X-2100000Y-545456D01*
X-2159960Y-767970D02*
Y-605416D01*
Y-767970D02*
X-2048400Y-879530D01*
X-4667799Y-955500D02*
X-3235487D01*
X-2048400Y-1042084D02*
Y-879530D01*
X-3235487Y-955500D02*
X-3190987Y-1000000D01*
X-2150000D01*
X-4857440Y-1196800D02*
X-2203116D01*
X-2048400Y-1042084D01*
X-1861266Y-538734D02*
X-1850000Y-550000D01*
X-1951600Y-538734D02*
X-1861266D01*
X-1995234Y-495100D02*
X-1951600Y-538734D01*
X-1350000Y-622507D02*
X-1299997Y-572505D01*
X-1742525Y-752400D02*
X-1640125Y-650000D01*
X-1299997Y-572505D02*
Y-400002D01*
X-1350000Y-650000D02*
Y-622507D01*
X-1640125Y-650000D02*
X-1350000D01*
X-1953460Y-752400D02*
X-1742525D01*
X-2058360Y-647500D02*
X-1953460Y-752400D01*
X-1035106Y638106D02*
X-575352D01*
X-537246Y600000D01*
X85101Y701600D02*
X385841Y400860D01*
X-2103060Y701600D02*
X85101D01*
X-537246Y600000D02*
X-50000D01*
X-2246320Y558340D02*
X-2103060Y701600D01*
X1640202Y748400D02*
Y840202D01*
X1758300Y880199D02*
Y885384D01*
X-678509Y934398D02*
X-661307Y951600D01*
X1640202Y840202D02*
X1650000Y850000D01*
X-661307Y951600D02*
X1692084D01*
X-3269899Y696399D02*
X-3031901Y934398D01*
X-678509D01*
X1692084Y951600D02*
X1758300Y885384D01*
X1292662Y400860D02*
X1640202Y748400D01*
X1758300Y880199D02*
X2716002Y-77503D01*
X2000000Y211682D02*
Y450000D01*
Y211682D02*
X2422962Y-211280D01*
X-4793899Y-1081601D02*
X-4667799Y-955500D01*
X-3199501Y2150001D02*
X-2454001D01*
X-3269899Y2220399D02*
X-3199501Y2150001D01*
X-3269899Y-573601D02*
X-2787340Y-91041D01*
X313141D01*
X399999Y-31301D01*
X149997Y-2099999D02*
X275499Y-2225500D01*
X1274501D01*
X1374999Y-2125002D01*
X-1074999D02*
X-951641Y-2248360D01*
X1636D01*
X149997Y-2099999D01*
X-4793899Y-1843601D02*
X-4666000Y-1971500D01*
X-2478502D01*
X-2324999Y-2125002D01*
X-2211802Y-2238200D01*
X-1188197D01*
X-1074999Y-2125002D01*
X-3445200Y109700D02*
X-3269899Y-65601D01*
X-3445200Y109700D02*
Y174800D01*
X-3315660Y304340D01*
X-3000700D01*
X-2758252Y61892D01*
X-1611320D01*
X-1035106Y638106D01*
X-4123380Y2166160D02*
X-3953200Y2336340D01*
X-886338D01*
X-699999Y2150001D01*
X385841Y400860D02*
X1292662D01*
X-3394400Y558340D02*
X-2246320D01*
X-4410400Y-457660D02*
X-3394400Y558340D01*
X-4908240Y-457660D02*
X-4410400D01*
X-4959040Y-508460D02*
X-4908240Y-457660D01*
X-4959040Y-1170460D02*
Y-508460D01*
Y-1170460D02*
X-4793899Y-1335601D01*
X2716002Y938497D02*
Y1493898D01*
X1735501Y2474399D02*
X2716002Y1493898D01*
X-3269899Y2474399D02*
X1735501D01*
X-4908240Y-1146000D02*
X-4857440Y-1196800D01*
X-4908240Y-1146000D02*
Y-941941D01*
X-4793899Y-827601D01*
X-4908240Y-205260D02*
X-4793899Y-319601D01*
X-4908240Y-205260D02*
Y22400D01*
X-4857440Y73200D01*
X-4730440D01*
X-4679640Y124000D01*
Y1424135D01*
X-4021435Y2082340D01*
X-2952440D01*
X-2899100Y2029000D01*
X929000D01*
X1050000Y2150001D01*
X-3269899Y188399D02*
X-3092592Y11092D01*
X-555828D01*
X-488640Y78280D01*
X1269040D01*
X1678823Y-331503D01*
X2716002D01*
X-4666000Y-701500D02*
X-3109920D01*
X-4793899Y-573601D02*
X-4666000Y-701500D01*
X-5009840Y1496459D02*
X-4793899Y1712399D01*
X-5009840Y-1397460D02*
Y1496459D01*
Y-1397460D02*
X-4956500Y-1450800D01*
X1150798D01*
X1374999Y-1675001D01*
X2422962Y-211280D02*
X2752400D01*
X2820980Y-279860D01*
Y-1100280D02*
Y-279860D01*
X1431600Y-2489660D02*
X2820980Y-1100280D01*
X-4834580Y-2489660D02*
X1431600D01*
X-4959040Y-2365200D02*
X-4834580Y-2489660D01*
X-4959040Y-2365200D02*
Y-1601402D01*
X-4947239Y-1589601D01*
X-4793899D01*
X750001Y-31301D02*
X1490020Y-771320D01*
Y-1788620D02*
Y-771320D01*
X-2500320Y-1788620D02*
X1490020D01*
X-2584140Y-1704800D02*
X-2500320Y-1788620D01*
X-4857440Y-1704800D02*
X-2584140D01*
X-4908240Y-1755600D02*
X-4857440Y-1704800D01*
X-4908240Y-2237260D02*
Y-1755600D01*
Y-2237260D02*
X-4793899Y-2351601D01*
Y-65601D02*
X-4031940Y696359D01*
Y1444800D01*
X-3902400Y1574340D01*
X982340D01*
X1558000Y2150001D01*
X2716002Y684497D02*
Y754758D01*
X2010720Y1460040D02*
X2716002Y754758D01*
X-3268259Y1460040D02*
X2010720D01*
X-3269899Y1458399D02*
X-3268259Y1460040D01*
X-3269899Y950399D02*
X-2894879Y1325420D01*
X1821078D01*
X2716002Y430497D01*
X-3269899Y1204399D02*
X-3090459Y1383840D01*
X1843080D01*
X2668580Y558340D01*
X2752400D01*
X2820980Y489760D01*
Y281475D02*
Y489760D01*
X2716002Y176497D02*
X2820980Y281475D01*
D16*
X2025000Y-1675001D02*
D03*
Y-2125002D02*
D03*
X1374999D02*
D03*
X-1674998Y-1675001D02*
D03*
Y-2125002D02*
D03*
X-2324999D02*
D03*
X799998Y-1650002D02*
D03*
Y-2099999D02*
D03*
X149997D02*
D03*
X-425003Y-1675001D02*
D03*
Y-2125002D02*
D03*
X-1074999D02*
D03*
D17*
X1374999Y-1675001D02*
D03*
X-2324999D02*
D03*
X149997Y-1650002D02*
D03*
X-1074999Y-1675001D02*
D03*
D18*
X750001Y-31301D02*
D03*
X399999D02*
D03*
D19*
X750001Y731299D02*
D03*
X399999D02*
D03*
D20*
X-2454001Y2150001D02*
D03*
X-699999D02*
D03*
X1050000D02*
D03*
D21*
X-1946001D02*
D03*
X-191999D02*
D03*
X1558000D02*
D03*
D22*
X-1549999Y1049998D02*
D03*
X-1050000D02*
D03*
Y-400002D02*
D03*
X-1299997D02*
D03*
D23*
X-1549999D02*
D03*
D24*
X-1869999Y349999D02*
D03*
X-730001D02*
D03*
D25*
X2716002Y-839503D02*
D03*
D26*
X-3269899Y2220399D02*
D03*
X-4793899Y-2097601D02*
D03*
Y2220399D02*
D03*
Y1966399D02*
D03*
Y1712399D02*
D03*
Y1458399D02*
D03*
Y1204399D02*
D03*
Y950399D02*
D03*
Y696399D02*
D03*
Y442399D02*
D03*
Y188399D02*
D03*
Y-65601D02*
D03*
Y-319601D02*
D03*
Y-573601D02*
D03*
Y-827601D02*
D03*
Y-1081601D02*
D03*
Y-1335601D02*
D03*
Y-1589601D02*
D03*
Y-1843601D02*
D03*
Y-2351601D02*
D03*
X-3269899D02*
D03*
Y-2097601D02*
D03*
Y-1843601D02*
D03*
Y-1589601D02*
D03*
Y-1335601D02*
D03*
Y-1081601D02*
D03*
Y-827601D02*
D03*
Y-573601D02*
D03*
Y-319601D02*
D03*
Y-65601D02*
D03*
Y188399D02*
D03*
Y442399D02*
D03*
Y696399D02*
D03*
Y950399D02*
D03*
Y1204399D02*
D03*
Y1458399D02*
D03*
Y1712399D02*
D03*
Y1966399D02*
D03*
Y2474399D02*
D03*
D27*
X-4793899D02*
D03*
D28*
X2716002Y-77503D02*
D03*
Y-331503D02*
D03*
Y-585503D02*
D03*
Y176497D02*
D03*
Y430497D02*
D03*
Y938497D02*
D03*
Y684497D02*
D03*
D29*
X-2100000Y-350000D02*
D03*
X-2150000Y-1000000D02*
D03*
X-1850000Y-550000D02*
D03*
X-1350000Y-650000D02*
D03*
X-50000Y600000D02*
D03*
X1650000Y850000D02*
D03*
X2000000Y450000D02*
D03*
X-4123380Y2166160D02*
D03*
X-2627320Y-193500D02*
D03*
X-2058360Y-647500D02*
D03*
%TF.MD5,d6c3a20d4f68d1437673b7df5af035c0*%
M02*
