%TF.GenerationSoftware,Altium Limited,Altium Designer,24.7.2 (38)*%
G04 Layer_Color=16711935*
%FSLAX45Y45*%
%MOMM*%
%TF.SameCoordinates,C0304756-74E1-48AD-9E84-610300F6E2F7*%
%TF.FilePolarity,Negative*%
%TF.FileFunction,Soldermask,Bot*%
%TF.Part,Single*%
G01*
G75*
%TA.AperFunction,ComponentPad*%
%ADD18R,1.20000X1.20000*%
%ADD19C,1.20000*%
%ADD22C,1.55000*%
%ADD23R,1.55000X1.55000*%
G04:AMPARAMS|DCode=24|XSize=2.4mm|YSize=5mm|CornerRadius=1.2mm|HoleSize=0mm|Usage=FLASHONLY|Rotation=0.000|XOffset=0mm|YOffset=0mm|HoleType=Round|Shape=RoundedRectangle|*
%AMROUNDEDRECTD24*
21,1,2.40000,2.60000,0,0,0.0*
21,1,0.00000,5.00000,0,0,0.0*
1,1,2.40000,0.00000,-1.30000*
1,1,2.40000,0.00000,-1.30000*
1,1,2.40000,0.00000,1.30000*
1,1,2.40000,0.00000,1.30000*
%
%ADD24ROUNDEDRECTD24*%
%ADD39C,1.70120*%
%ADD40R,1.70120X1.70120*%
%ADD41C,1.85320*%
%ADD42R,1.85320X1.85320*%
%ADD43R,1.52400X1.52400*%
%ADD44C,1.71120*%
%ADD45R,1.71120X1.71120*%
%ADD46C,1.52400*%
%TA.AperFunction,ViaPad*%
%ADD47C,1.47320*%
D18*
X750001Y-31301D02*
D03*
X399999D02*
D03*
D19*
X750001Y731299D02*
D03*
X399999D02*
D03*
D22*
X-1549999Y1049998D02*
D03*
X-1050000D02*
D03*
Y-400002D02*
D03*
X-1299997D02*
D03*
D23*
X-1549999D02*
D03*
D24*
X-1869999Y349999D02*
D03*
X-730001D02*
D03*
D39*
X2025000Y-1675001D02*
D03*
Y-2125002D02*
D03*
X1374999D02*
D03*
X-1674998Y-1675001D02*
D03*
Y-2125002D02*
D03*
X-2324999D02*
D03*
X799998Y-1650002D02*
D03*
Y-2099999D02*
D03*
X149997D02*
D03*
X-425003Y-1675001D02*
D03*
Y-2125002D02*
D03*
X-1074999D02*
D03*
D40*
X1374999Y-1675001D02*
D03*
X-2324999D02*
D03*
X149997Y-1650002D02*
D03*
X-1074999Y-1675001D02*
D03*
D41*
X-2454001Y2150001D02*
D03*
X-699999D02*
D03*
X1050000D02*
D03*
D42*
X-1946001D02*
D03*
X-191999D02*
D03*
X1558000D02*
D03*
D43*
X2716002Y-839503D02*
D03*
D44*
X-3269899Y2220399D02*
D03*
X-4793899Y-2097601D02*
D03*
Y2220399D02*
D03*
Y1966399D02*
D03*
Y1712399D02*
D03*
Y1458399D02*
D03*
Y1204399D02*
D03*
Y950399D02*
D03*
Y696399D02*
D03*
Y442399D02*
D03*
Y188399D02*
D03*
Y-65601D02*
D03*
Y-319601D02*
D03*
Y-573601D02*
D03*
Y-827601D02*
D03*
Y-1081601D02*
D03*
Y-1335601D02*
D03*
Y-1589601D02*
D03*
Y-1843601D02*
D03*
Y-2351601D02*
D03*
X-3269899D02*
D03*
Y-2097601D02*
D03*
Y-1843601D02*
D03*
Y-1589601D02*
D03*
Y-1335601D02*
D03*
Y-1081601D02*
D03*
Y-827601D02*
D03*
Y-573601D02*
D03*
Y-319601D02*
D03*
Y-65601D02*
D03*
Y188399D02*
D03*
Y442399D02*
D03*
Y696399D02*
D03*
Y950399D02*
D03*
Y1204399D02*
D03*
Y1458399D02*
D03*
Y1712399D02*
D03*
Y1966399D02*
D03*
Y2474399D02*
D03*
D45*
X-4793899D02*
D03*
D46*
X2716002Y-77503D02*
D03*
Y-331503D02*
D03*
Y-585503D02*
D03*
Y176497D02*
D03*
Y430497D02*
D03*
Y938497D02*
D03*
Y684497D02*
D03*
D47*
X-2100000Y-350000D02*
D03*
X-2150000Y-1000000D02*
D03*
X-1850000Y-550000D02*
D03*
X-1350000Y-650000D02*
D03*
X-50000Y600000D02*
D03*
X1650000Y850000D02*
D03*
X2000000Y450000D02*
D03*
X-4123380Y2166160D02*
D03*
X-2627320Y-193500D02*
D03*
X-2058360Y-647500D02*
D03*
%TF.MD5,91b1128577076b82988f1578c7e24fab*%
M02*
